<svg aria-hidden="true" style="position: absolute; width: 0; height: 0; overflow: hidden;" version="1.1" xmlns="http://www.w3.org/2000/svg" xmlns:xlink="http://www.w3.org/1999/xlink">
<defs>
<symbol id="twitter" width="24" height="24" viewBox="0 0 24 24" fill="none">
<path d="M23 3.00005C22.0424 3.67552 20.9821 4.19216 19.86 4.53005C19.2577 3.83756 18.4573 3.34674 17.567 3.12397C16.6767 2.90121 15.7395 2.95724 14.8821 3.2845C14.0247 3.61176 13.2884 4.19445 12.773 4.95376C12.2575 5.71308 11.9877 6.61238 12 7.53005V8.53005C10.2426 8.57561 8.50127 8.18586 6.93101 7.39549C5.36074 6.60513 4.01032 5.43868 3 4.00005C3 4.00005 -1 13 8 17C5.94053 18.398 3.48716 19.099 1 19C10 24 21 19 21 7.50005C20.9991 7.2215 20.9723 6.94364 20.92 6.67005C21.9406 5.66354 22.6608 4.39276 23 3.00005V3.00005Z" stroke-width="1.5" stroke-linecap="round" stroke-linejoin="round"/>
</symbol>
<symbol id="facebook" width="24" height="24" viewBox="0 0 24 24" fill="none">
<path d="M18 2H15C13.6739 2 12.4021 2.52678 11.4645 3.46447C10.5268 4.40215 10 5.67392 10 7V10H7V14H10V22H14V14H17L18 10H14V7C14 6.73478 14.1054 6.48043 14.2929 6.29289C14.4804 6.10536 14.7348 6 15 6H18V2Z" stroke-width="1.5" stroke-linecap="round" stroke-linejoin="round"/>
</symbol>
<symbol id="instagram" width="24" height="24" viewBox="0 0 24 24" fill="none">
<path d="M17 2H7C4.23858 2 2 4.23858 2 7V17C2 19.7614 4.23858 22 7 22H17C19.7614 22 22 19.7614 22 17V7C22 4.23858 19.7614 2 17 2Z" stroke-width="1.5" stroke-linecap="round" stroke-linejoin="round"/>
<path d="M16 11.3701C16.1234 12.2023 15.9812 13.0523 15.5937 13.7991C15.2062 14.5459 14.5931 15.1515 13.8416 15.5297C13.0901 15.908 12.2384 16.0397 11.4077 15.906C10.5771 15.7723 9.80971 15.3801 9.21479 14.7852C8.61987 14.1903 8.22768 13.4229 8.09402 12.5923C7.96035 11.7616 8.09202 10.91 8.47028 10.1584C8.84854 9.40691 9.45414 8.7938 10.2009 8.4063C10.9477 8.0188 11.7977 7.87665 12.63 8.00006C13.4789 8.12594 14.2648 8.52152 14.8716 9.12836C15.4785 9.73521 15.8741 10.5211 16 11.3701Z" stroke-width="1.5" stroke-linecap="round" stroke-linejoin="round"/>
<path d="M17.5 6.5H17.51" stroke-width="1.5" stroke-linecap="round" stroke-linejoin="round"/>
</symbol>
<symbol id="headset" width="24" height="24" viewBox="0 0 24 24" fill="none">
<path d="M4 13.5V13C4 8.02944 7.58172 4 12 4C16.4183 4 20 8.02944 20 13V13.5"  stroke-width="1.5" stroke-linecap="round" stroke-linejoin="round"/>
<path d="M2 17.4384V15.5615C2 14.6438 2.62459 13.8438 3.51493 13.6213L4 13.5L5.25448 13.1864C5.63317 13.0917 6 13.3781 6 13.7684V19.2315C6 19.6219 5.63317 19.9083 5.25448 19.8136L3.51493 19.3787C2.62459 19.1561 2 18.3562 2 17.4384Z"  stroke-width="1.5" stroke-linecap="round" stroke-linejoin="round"/>
<path d="M22 17.4384V15.5615C22 14.6438 21.3754 13.8438 20.4851 13.6212L20 13.5L18.7455 13.1864C18.3668 13.0917 18 13.3781 18 13.7684V19.2315C18 19.6219 18.3668 19.9083 18.7455 19.8136L20.4851 19.3787C21.3754 19.1561 22 18.3562 22 17.4384Z"  stroke-width="1.5" stroke-linecap="round" stroke-linejoin="round"/>
</symbol>
<symbol id="check" width="24" height="24" viewBox="0 0 24 24" fill="none">
<path d="M7 12.5L10 15.5L17 8.5"  stroke-width="1.5" stroke-linecap="round" stroke-linejoin="round"/>
<path d="M12 22C17.5228 22 22 17.5228 22 12C22 6.47715 17.5228 2 12 2C6.47715 2 2 6.47715 2 12C2 17.5228 6.47715 22 12 22Z"  stroke-width="1.5" stroke-linecap="round" stroke-linejoin="round"/>
</symbol>
<symbol id="map-pin" width="24" height="24" viewBox="0 0 24 24" fill="none">
<path d="M21 10C21 17 12 23 12 23C12 23 3 17 3 10C3 7.61305 3.94821 5.32387 5.63604 3.63604C7.32387 1.94821 9.61305 1 12 1C14.3869 1 16.6761 1.94821 18.364 3.63604C20.0518 5.32387 21 7.61305 21 10Z" stroke="black" stroke-width="1.5" stroke-linecap="round" stroke-linejoin="round"/>
<path d="M12 13C13.6569 13 15 11.6569 15 10C15 8.34315 13.6569 7 12 7C10.3431 7 9 8.34315 9 10C9 11.6569 10.3431 13 12 13Z" stroke="black" stroke-width="1.5" stroke-linecap="round" stroke-linejoin="round"/>
</symbol>
<symbol id="cart" width="27" height="27" viewBox="0 0 27 27" fill="none">
<path d="M21.6359 10.6959L23.2705 21.3209C23.4569 22.5324 22.5195 23.625 21.2938 23.625H5.70622C4.48045 23.625 3.54309 22.5324 3.72948 21.3209L5.36409 10.6959C5.5142 9.72022 6.35369 9 7.34084 9H19.6592C20.6463 9 21.4858 9.72022 21.6359 10.6959Z" stroke="black" stroke-width="1.5" stroke-linecap="round" stroke-linejoin="round"/>
<path d="M15.75 5.625C15.75 4.38236 14.7426 3.375 13.5 3.375C12.2574 3.375 11.25 4.38236 11.25 5.625" stroke="black" stroke-width="1.5" stroke-linecap="round" stroke-linejoin="round"/>
<path d="M10.1162 16.875H13.4912M16.8662 16.875H13.4912M13.4912 16.875V13.5M13.4912 16.875V20.25" stroke="black" stroke-width="1.5" stroke-linecap="round" stroke-linejoin="round"/>
</symbol>
<symbol id="diagram" width="26" height="26" viewBox="0 0 26 26" fill="none">
<path d="M9.75 22.75H16.25M9.75 22.75V17.3333M9.75 22.75H3.85C3.51863 22.75 3.25 22.4814 3.25 22.15V17.9333C3.25 17.602 3.51863 17.3333 3.85 17.3333H9.75M16.25 22.75V9.75M16.25 22.75H22.15C22.4814 22.75 22.75 22.4814 22.75 22.15V3.85C22.75 3.51863 22.4814 3.25 22.15 3.25H16.85C16.5186 3.25 16.25 3.51863 16.25 3.85V9.75M16.25 9.75H10.35C10.0186 9.75 9.75 10.0186 9.75 10.35V17.3333" stroke="black" stroke-width="1.5"/>
</symbol>
<symbol id="phone-call" width="24" height="24" viewBox="0 0 24 24" fill="none">
<path d="M15.0501 5C16.0268 5.19057 16.9244 5.66826 17.6281 6.37194C18.3318 7.07561 18.8095 7.97326 19.0001 8.95M15.0501 1C17.0793 1.22544 18.9716 2.13417 20.4163 3.57701C21.8609 5.01984 22.7721 6.91101 23.0001 8.94M22.0001 16.92V19.92C22.0012 20.1985 21.9441 20.4742 21.8326 20.7293C21.721 20.9845 21.5574 21.2136 21.3521 21.4019C21.1469 21.5901 20.9046 21.7335 20.6408 21.8227C20.377 21.9119 20.0974 21.9451 19.8201 21.92C16.7429 21.5856 13.7871 20.5341 11.1901 18.85C8.77388 17.3147 6.72539 15.2662 5.19006 12.85C3.50003 10.2412 2.4483 7.27099 2.12006 4.18C2.09507 3.90347 2.12793 3.62476 2.21656 3.36162C2.30518 3.09849 2.44763 2.85669 2.63482 2.65162C2.82202 2.44655 3.04986 2.28271 3.30385 2.17052C3.55783 2.05833 3.8324 2.00026 4.11006 2H7.11006C7.59536 1.99522 8.06585 2.16708 8.43382 2.48353C8.80179 2.79999 9.04213 3.23945 9.11005 3.72C9.23668 4.68007 9.47151 5.62273 9.81006 6.53C9.9446 6.88792 9.97372 7.27691 9.89396 7.65088C9.81421 8.02485 9.62892 8.36811 9.36005 8.64L8.09006 9.91C9.51361 12.4135 11.5865 14.4864 14.0901 15.91L15.3601 14.64C15.6319 14.3711 15.9752 14.1858 16.3492 14.1061C16.7231 14.0263 17.1121 14.0555 17.4701 14.19C18.3773 14.5286 19.32 14.7634 20.2801 14.89C20.7658 14.9585 21.2095 15.2032 21.5266 15.5775C21.8437 15.9518 22.0122 16.4296 22.0001 16.92Z" stroke="#1A1A1A" stroke-width="1.5" stroke-linecap="round" stroke-linejoin="round"/>
</symbol>
<symbol id="apostroph" width="55" height="44" viewBox="0 0 55 44" fill="none">
<path d="M8.4 43.8L0.8 37.8C4.4 33.9333 6.8 30.4 8 27.2C9.2 24 9.8 20.7333 9.8 17.4L14.6 20.6H0V0H20.6V14.6C20.6 20.0667 19.6667 25.1333 17.8 29.8C16.0667 34.4667 12.9333 39.1333 8.4 43.8ZM42 43.8L34.4 37.8C38 33.9333 40.4 30.4 41.6 27.2C42.8 24 43.4 20.7333 43.4 17.4L48.2 20.6H33.6V0H54.2V14.6C54.2 20.0667 53.2667 25.1333 51.4 29.8C49.6667 34.4667 46.5333 39.1333 42 43.8Z" fill="#E47F3A"/>
</symbol>
</defs>
</svg>
