<svg aria-hidden="true" style="position: absolute; width: 0; height: 0; overflow: hidden;" version="1.1" xmlns="http://www.w3.org/2000/svg" xmlns:xlink="http://www.w3.org/1999/xlink">
<defs><symbol id="facebook" viewBox="0 0 32 32">
<path d="M21.329 5.313h2.921v-5.088c-0.504-0.069-2.237-0.225-4.256-0.225-4.212 0-7.097 2.649-7.097 7.519v4.481h-4.648v5.688h4.648v14.312h5.699v-14.311h4.46l0.708-5.688h-5.169v-3.919c0.001-1.644 0.444-2.769 2.735-2.769z"></path>
</symbol>
<symbol id="twitter" viewBox="0 0 32 32">
<path d="M32 6.078c-1.19 0.522-2.458 0.868-3.78 1.036 1.36-0.812 2.398-2.088 2.886-3.626-1.268 0.756-2.668 1.29-4.16 1.588-1.204-1.282-2.92-2.076-4.792-2.076-3.632 0-6.556 2.948-6.556 6.562 0 0.52 0.044 1.020 0.152 1.496-5.454-0.266-10.28-2.88-13.522-6.862-0.566 0.982-0.898 2.106-0.898 3.316 0 2.272 1.17 4.286 2.914 5.452-1.054-0.020-2.088-0.326-2.964-0.808 0 0.020 0 0.046 0 0.072 0 3.188 2.274 5.836 5.256 6.446-0.534 0.146-1.116 0.216-1.72 0.216-0.42 0-0.844-0.024-1.242-0.112 0.85 2.598 3.262 4.508 6.13 4.57-2.232 1.746-5.066 2.798-8.134 2.798-0.538 0-1.054-0.024-1.57-0.090 2.906 1.874 6.35 2.944 10.064 2.944 12.072 0 18.672-10 18.672-18.668 0-0.29-0.010-0.57-0.024-0.848 1.302-0.924 2.396-2.078 3.288-3.406z"></path>
</symbol>
<symbol id="instagram" viewBox="0 0 32 32">
<path d="M31.969 9.408c-0.075-1.7-0.35-2.869-0.744-3.882-0.406-1.075-1.031-2.038-1.85-2.838-0.8-0.813-1.769-1.444-2.832-1.844-1.019-0.394-2.182-0.669-3.882-0.744-1.713-0.081-2.257-0.1-6.601-0.1s-4.888 0.019-6.595 0.094c-1.7 0.075-2.869 0.35-3.882 0.744-1.075 0.406-2.038 1.031-2.838 1.85-0.813 0.8-1.444 1.769-1.844 2.832-0.394 1.019-0.669 2.182-0.744 3.882-0.081 1.713-0.1 2.257-0.1 6.601s0.019 4.888 0.094 6.595c0.075 1.7 0.35 2.869 0.744 3.882 0.406 1.075 1.038 2.038 1.85 2.838 0.8 0.813 1.769 1.444 2.832 1.844 1.019 0.394 2.182 0.669 3.882 0.744 1.706 0.075 2.25 0.094 6.595 0.094s4.888-0.018 6.595-0.094c1.7-0.075 2.869-0.35 3.882-0.744 2.151-0.831 3.851-2.532 4.682-4.682 0.394-1.019 0.669-2.182 0.744-3.882 0.075-1.707 0.094-2.251 0.094-6.595s-0.006-4.888-0.081-6.595zM29.087 22.473c-0.069 1.563-0.331 2.407-0.55 2.969-0.538 1.394-1.644 2.501-3.038 3.038-0.563 0.219-1.413 0.481-2.969 0.55-1.688 0.075-2.194 0.094-6.464 0.094s-4.782-0.018-6.464-0.094c-1.563-0.069-2.407-0.331-2.969-0.55-0.694-0.256-1.325-0.663-1.838-1.194-0.531-0.519-0.938-1.144-1.194-1.838-0.219-0.563-0.481-1.413-0.55-2.969-0.075-1.688-0.094-2.194-0.094-6.464s0.019-4.782 0.094-6.464c0.069-1.563 0.331-2.407 0.55-2.969 0.256-0.694 0.663-1.325 1.2-1.838 0.519-0.531 1.144-0.938 1.838-1.194 0.563-0.219 1.413-0.481 2.969-0.55 1.688-0.075 2.194-0.094 6.464-0.094 4.276 0 4.782 0.019 6.464 0.094 1.563 0.069 2.407 0.331 2.969 0.55 0.694 0.256 1.325 0.662 1.838 1.194 0.531 0.519 0.938 1.144 1.194 1.838 0.219 0.563 0.481 1.413 0.55 2.969 0.075 1.688 0.094 2.194 0.094 6.464s-0.019 4.77-0.094 6.457z"></path>
<path d="M16.059 7.782c-4.538 0-8.22 3.682-8.22 8.22s3.682 8.22 8.22 8.22c4.538 0 8.22-3.682 8.22-8.22s-3.682-8.22-8.22-8.22zM16.059 21.335c-2.944 0-5.332-2.388-5.332-5.332s2.388-5.332 5.332-5.332c2.944 0 5.332 2.388 5.332 5.332s-2.388 5.332-5.332 5.332z"></path>
<path d="M26.524 7.457c0 1.060-0.859 1.919-1.919 1.919s-1.919-0.859-1.919-1.919c0-1.060 0.859-1.919 1.919-1.919s1.919 0.859 1.919 1.919z"></path>
</symbol>
<symbol id="headset" width="24" height="24" viewBox="0 0 24 24" fill="none">
<path d="M4 13.5V13C4 8.02944 7.58172 4 12 4C16.4183 4 20 8.02944 20 13V13.5" stroke="#192459" stroke-width="1.5" stroke-linecap="round" stroke-linejoin="round"/>
<path d="M2 17.4384V15.5615C2 14.6438 2.62459 13.8438 3.51493 13.6213L4 13.5L5.25448 13.1864C5.63317 13.0917 6 13.3781 6 13.7684V19.2315C6 19.6219 5.63317 19.9083 5.25448 19.8136L3.51493 19.3787C2.62459 19.1561 2 18.3562 2 17.4384Z" stroke="#192459" stroke-width="1.5" stroke-linecap="round" stroke-linejoin="round"/>
<path d="M22 17.4384V15.5615C22 14.6438 21.3754 13.8438 20.4851 13.6212L20 13.5L18.7455 13.1864C18.3668 13.0917 18 13.3781 18 13.7684V19.2315C18 19.6219 18.3668 19.9083 18.7455 19.8136L20.4851 19.3787C21.3754 19.1561 22 18.3562 22 17.4384Z" stroke="#192459" stroke-width="1.5" stroke-linecap="round" stroke-linejoin="round"/>
</symbol>
<symbol id="check" width="24" height="24" viewBox="0 0 24 24" fill="none">
<path d="M7 12.5L10 15.5L17 8.5" stroke="#47FF4F" stroke-width="1.5" stroke-linecap="round" stroke-linejoin="round"/>
<path d="M12 22C17.5228 22 22 17.5228 22 12C22 6.47715 17.5228 2 12 2C6.47715 2 2 6.47715 2 12C2 17.5228 6.47715 22 12 22Z" stroke="#47FF4F" stroke-width="1.5" stroke-linecap="round" stroke-linejoin="round"/>
</symbol>
<symbol id="map-pin" width="24" height="24" viewBox="0 0 24 24" fill="none">
<path d="M21 10C21 17 12 23 12 23C12 23 3 17 3 10C3 7.61305 3.94821 5.32387 5.63604 3.63604C7.32387 1.94821 9.61305 1 12 1C14.3869 1 16.6761 1.94821 18.364 3.63604C20.0518 5.32387 21 7.61305 21 10Z" stroke="black" stroke-width="1.5" stroke-linecap="round" stroke-linejoin="round"/>
<path d="M12 13C13.6569 13 15 11.6569 15 10C15 8.34315 13.6569 7 12 7C10.3431 7 9 8.34315 9 10C9 11.6569 10.3431 13 12 13Z" stroke="black" stroke-width="1.5" stroke-linecap="round" stroke-linejoin="round"/>
</symbol>
<symbol id="cart" width="27" height="27" viewBox="0 0 27 27" fill="none">
<path d="M21.6359 10.6959L23.2705 21.3209C23.4569 22.5324 22.5195 23.625 21.2938 23.625H5.70622C4.48045 23.625 3.54309 22.5324 3.72948 21.3209L5.36409 10.6959C5.5142 9.72022 6.35369 9 7.34084 9H19.6592C20.6463 9 21.4858 9.72022 21.6359 10.6959Z" stroke="black" stroke-width="1.5" stroke-linecap="round" stroke-linejoin="round"/>
<path d="M15.75 5.625C15.75 4.38236 14.7426 3.375 13.5 3.375C12.2574 3.375 11.25 4.38236 11.25 5.625" stroke="black" stroke-width="1.5" stroke-linecap="round" stroke-linejoin="round"/>
<path d="M10.1162 16.875H13.4912M16.8662 16.875H13.4912M13.4912 16.875V13.5M13.4912 16.875V20.25" stroke="black" stroke-width="1.5" stroke-linecap="round" stroke-linejoin="round"/>
</symbol>
<symbol id="diagram" width="26" height="26" viewBox="0 0 26 26" fill="none">
<path d="M9.75 22.75H16.25M9.75 22.75V17.3333M9.75 22.75H3.85C3.51863 22.75 3.25 22.4814 3.25 22.15V17.9333C3.25 17.602 3.51863 17.3333 3.85 17.3333H9.75M16.25 22.75V9.75M16.25 22.75H22.15C22.4814 22.75 22.75 22.4814 22.75 22.15V3.85C22.75 3.51863 22.4814 3.25 22.15 3.25H16.85C16.5186 3.25 16.25 3.51863 16.25 3.85V9.75M16.25 9.75H10.35C10.0186 9.75 9.75 10.0186 9.75 10.35V17.3333" stroke="black" stroke-width="1.5"/>
</symbol>
<symbol id="phone-call" width="24" height="24" viewBox="0 0 24 24" fill="none">
<path d="M15.0501 5C16.0268 5.19057 16.9244 5.66826 17.6281 6.37194C18.3318 7.07561 18.8095 7.97326 19.0001 8.95M15.0501 1C17.0793 1.22544 18.9716 2.13417 20.4163 3.57701C21.8609 5.01984 22.7721 6.91101 23.0001 8.94M22.0001 16.92V19.92C22.0012 20.1985 21.9441 20.4742 21.8326 20.7293C21.721 20.9845 21.5574 21.2136 21.3521 21.4019C21.1469 21.5901 20.9046 21.7335 20.6408 21.8227C20.377 21.9119 20.0974 21.9451 19.8201 21.92C16.7429 21.5856 13.7871 20.5341 11.1901 18.85C8.77388 17.3147 6.72539 15.2662 5.19006 12.85C3.50003 10.2412 2.4483 7.27099 2.12006 4.18C2.09507 3.90347 2.12793 3.62476 2.21656 3.36162C2.30518 3.09849 2.44763 2.85669 2.63482 2.65162C2.82202 2.44655 3.04986 2.28271 3.30385 2.17052C3.55783 2.05833 3.8324 2.00026 4.11006 2H7.11006C7.59536 1.99522 8.06585 2.16708 8.43382 2.48353C8.80179 2.79999 9.04213 3.23945 9.11005 3.72C9.23668 4.68007 9.47151 5.62273 9.81006 6.53C9.9446 6.88792 9.97372 7.27691 9.89396 7.65088C9.81421 8.02485 9.62892 8.36811 9.36005 8.64L8.09006 9.91C9.51361 12.4135 11.5865 14.4864 14.0901 15.91L15.3601 14.64C15.6319 14.3711 15.9752 14.1858 16.3492 14.1061C16.7231 14.0263 17.1121 14.0555 17.4701 14.19C18.3773 14.5286 19.32 14.7634 20.2801 14.89C20.7658 14.9585 21.2095 15.2032 21.5266 15.5775C21.8437 15.9518 22.0122 16.4296 22.0001 16.92Z" stroke="#1A1A1A" stroke-width="1.5" stroke-linecap="round" stroke-linejoin="round"/>
</symbol>
</defs>
</svg>
